<svg width="64" height="52" viewBox="0 0 64 52" fill="none" xmlns="http://www.w3.org/2000/svg">
<path d="M61.8707 8.66163C60.5932 7.32323 58.8289 6.53235 56.8213 6.53235H46.7224V6.41068C46.7224 4.88977 46.1141 3.42969 45.0798 2.45631C44.0456 1.42209 42.6464 0.813721 41.1255 0.813721H22.8745C21.2928 0.813721 19.8935 1.42209 18.8593 2.45631C17.8251 3.49053 17.2167 4.88977 17.2167 6.41068V6.53235H7.17871C5.1711 6.53235 3.40684 7.32323 2.12928 8.66163C0.851711 9.93919 0 11.7643 0 13.7111V44.0076C0 46.0152 0.790875 47.7795 2.12928 49.0571C3.40684 50.3346 5.23194 51.1863 7.17871 51.1863H56.8213C58.8289 51.1863 60.5932 50.3955 61.8707 49.0571C63.1483 47.7795 64 45.9544 64 44.0076V13.7111C64 11.7035 63.2091 9.93919 61.8707 8.66163ZM60.8365 44.0076H60.7757C60.7757 45.1027 60.3498 46.0761 59.6198 46.8061C58.8897 47.5362 57.9164 47.962 56.8213 47.962H7.17871C6.08365 47.962 5.11027 47.5362 4.38023 46.8061C3.65019 46.0761 3.22433 45.1027 3.22433 44.0076V13.7111C3.22433 12.616 3.65019 11.6426 4.38023 10.9126C5.11027 10.1825 6.08365 9.75669 7.17871 9.75669H18.9202C19.8327 9.75669 20.5627 9.02665 20.5627 8.1141V6.34984C20.5627 5.68064 20.8061 5.07228 21.2319 4.64642C21.6578 4.22056 22.2662 3.97722 22.9354 3.97722H41.1255C41.7947 3.97722 42.403 4.22056 42.8289 4.64642C43.2548 5.07228 43.4981 5.68064 43.4981 6.34984V8.1141C43.4981 9.02665 44.2281 9.75669 45.1407 9.75669H56.8821C57.9772 9.75669 58.9506 10.1825 59.6806 10.9126C60.4106 11.6426 60.8365 12.616 60.8365 13.7111V44.0076Z" fill="white"/>
<path d="M32 13.8936C27.8631 13.8936 24.0913 15.597 21.4145 18.2738C18.6768 21.0114 17.0342 24.7224 17.0342 28.8593C17.0342 32.9962 18.7377 36.7681 21.4145 39.4449C24.1521 42.1825 27.8631 43.8251 32 43.8251C36.1369 43.8251 39.9088 42.1217 42.5856 39.4449C45.3232 36.7072 46.9658 32.9962 46.9658 28.8593C46.9658 24.7224 45.2624 20.9506 42.5856 18.2738C39.9088 15.597 36.1369 13.8936 32 13.8936ZM40.2738 37.1939C38.1445 39.2624 35.2244 40.6008 32 40.6008C28.7757 40.6008 25.8555 39.2624 23.7263 37.1939C21.597 35.0647 20.3194 32.1445 20.3194 28.9202C20.3194 25.6958 21.6578 22.7757 23.7263 20.6464C25.8555 18.5171 28.7757 17.2396 32 17.2396C35.2244 17.2396 38.1445 18.578 40.2738 20.6464C42.4031 22.7757 43.6806 25.6958 43.6806 28.9202C43.7415 32.1445 42.4031 35.0647 40.2738 37.1939Z" fill="white"/>
<path d="M53.6578 19.7947C55.3042 19.7947 56.6388 18.4601 56.6388 16.8138C56.6388 15.1674 55.3042 13.8328 53.6578 13.8328C52.0114 13.8328 50.6768 15.1674 50.6768 16.8138C50.6768 18.4601 52.0114 19.7947 53.6578 19.7947Z" fill="white"/>
</svg>
