<svg width="64" height="57" viewBox="0 0 64 57" fill="none" xmlns="http://www.w3.org/2000/svg">
<path d="M32 56.9395C31.0889 56.9395 30.2104 56.6094 29.5259 56.0098C26.9404 53.749 24.4478 51.6245 22.2485 49.7505L22.2373 49.7407C15.7896 44.2461 10.2217 39.501 6.34766 34.8267C2.01709 29.6011 0 24.6465 0 19.2339C0 13.9751 1.80322 9.12354 5.07715 5.57227C8.39014 1.979 12.936 0 17.8789 0C21.5732 0 24.9565 1.16797 27.9346 3.47119C29.4375 4.63379 30.7998 6.05664 32 7.71631C33.2007 6.05664 34.5625 4.63379 36.0659 3.47119C39.0439 1.16797 42.4272 0 46.1216 0C51.064 0 55.6104 1.979 58.9233 5.57227C62.1973 9.12354 64 13.9751 64 19.2339C64 24.6465 61.9834 29.6011 57.6528 34.8262C53.7788 39.501 48.2114 44.2456 41.7646 49.7397C39.5615 51.6167 37.0649 53.7446 34.4736 56.0107C33.7896 56.6094 32.9106 56.9395 32 56.9395ZM17.8789 3.74902C13.9956 3.74902 10.4282 5.29883 7.83301 8.11328C5.19922 10.9702 3.74854 14.9194 3.74854 19.2339C3.74854 23.7861 5.44043 27.8574 9.23389 32.4346C12.9004 36.8589 18.354 41.5063 24.6685 46.8877L24.6802 46.8975C26.8877 48.7788 29.3901 50.9116 31.9946 53.189C34.6147 50.9072 37.1211 48.771 39.333 46.8867C45.647 41.5054 51.1001 36.8589 54.7666 32.4346C58.5596 27.8574 60.2515 23.7861 60.2515 19.2339C60.2515 14.9194 58.8008 10.9702 56.167 8.11328C53.5723 5.29883 50.0044 3.74902 46.1216 3.74902C43.2769 3.74902 40.665 4.65332 38.3589 6.43652C36.3037 8.02637 34.8721 10.0361 34.0327 11.4424C33.6011 12.1655 32.8413 12.5972 32 12.5972C31.1587 12.5972 30.3989 12.1655 29.9673 11.4424C29.1284 10.0361 27.6968 8.02637 25.6411 6.43652C23.335 4.65332 20.7231 3.74902 17.8789 3.74902Z" fill="white"/>
</svg>
