<svg width="64" height="64" viewBox="0 0 64 64" fill="none" xmlns="http://www.w3.org/2000/svg">
<g clip-path="url(#clip0)">
<path d="M59.0769 5.49731H4.92312C2.16287 5.49731 0 7.66019 0 10.4204V53.5794C0 56.3397 2.16287 58.5026 4.92312 58.5026H59.077C61.8372 58.5026 64.0001 56.3397 64.0001 53.5794V10.4204C64 7.66019 61.8371 5.49731 59.0769 5.49731ZM59.0769 53.5794H4.92312L4.88538 10.4237C4.88538 10.4237 4.89687 10.4204 4.92312 10.4204H59.077V53.5794H59.0769Z" fill="white"/>
<path d="M24.4586 21.157C23.6282 20.1535 22.1579 19.973 21.106 20.7443L1.00348 35.5135L3.91873 39.4815L22.1505 26.0866L48.0746 57.3654L51.8637 54.2236L24.4586 21.157Z" fill="white"/>
<path d="M48.1321 23.3421C47.2352 22.6324 45.9683 22.6349 45.0723 23.3463L33.4211 32.618L36.4865 36.4703L46.61 28.4145L60.0113 39.018L63.0653 35.1575L48.1321 23.3421Z" fill="white"/>
</g>
<defs>
<clipPath id="clip0">
<rect width="64" height="64" fill="white"/>
</clipPath>
</defs>
</svg>
