<svg width="64" height="57" viewBox="0 0 64 57" fill="none" xmlns="http://www.w3.org/2000/svg">
<path d="M63.116 25.2834C62.5664 24.941 61.8789 24.9067 61.2975 25.1925L48.75 31.3634V29.375C48.75 26.4441 46.9058 23.9371 44.3175 22.9499C47.0343 20.5435 48.75 17.0311 48.75 13.125C48.75 5.88788 42.8621 0 35.625 0C30.8561 0 26.6735 2.55687 24.375 6.37138C22.0765 2.55687 17.8939 0 13.125 0C5.88788 0 0 5.88788 0 13.125C0 17.0311 1.71575 20.5435 4.4325 22.9499C1.84425 23.9371 0 26.4441 0 29.375V49.375C0 53.1659 3.08413 56.25 6.875 56.25H41.875C45.6659 56.25 48.75 53.1659 48.75 49.375V47.3866L61.2975 53.5575C61.5592 53.6862 61.8424 53.75 62.1249 53.75C62.4699 53.75 62.8138 53.6549 63.116 53.4666C63.6658 53.1244 64 52.5226 64 51.875V26.875C64 26.2274 63.6658 25.6256 63.116 25.2834ZM35.625 3.75C40.7944 3.75 45 7.95563 45 13.125C45 18.2944 40.7944 22.5 35.625 22.5C30.4556 22.5 26.25 18.2944 26.25 13.125C26.25 7.95563 30.4556 3.75 35.625 3.75ZM26.4495 22.5H22.3005C23.0976 21.7197 23.7961 20.8393 24.375 19.8786C24.9539 20.8393 25.6524 21.7197 26.4495 22.5ZM3.75 13.125C3.75 7.95563 7.95563 3.75 13.125 3.75C18.2944 3.75 22.5 7.95563 22.5 13.125C22.5 18.2944 18.2944 22.5 13.125 22.5C7.95563 22.5 3.75 18.2944 3.75 13.125ZM45 49.375C45 51.0981 43.5981 52.5 41.875 52.5H6.875C5.15188 52.5 3.75 51.0981 3.75 49.375V29.375C3.75 27.6519 5.15188 26.25 6.875 26.25H41.875C43.5981 26.25 45 27.6519 45 29.375V34.375V44.375V49.375ZM60.25 48.8634L48.75 43.2076V35.5424L60.25 29.8866V48.8634Z" fill="white"/>
<path d="M13.125 18.75C16.2266 18.75 18.75 16.2266 18.75 13.125C18.75 10.0234 16.2266 7.5 13.125 7.5C10.0234 7.5 7.5 10.0234 7.5 13.125C7.5 16.2266 10.0234 18.75 13.125 18.75ZM13.125 11.25C14.1589 11.25 15 12.0911 15 13.125C15 14.1589 14.1589 15 13.125 15C12.0911 15 11.25 14.1589 11.25 13.125C11.25 12.0911 12.0911 11.25 13.125 11.25Z" fill="white"/>
<path d="M35.625 18.75C38.7266 18.75 41.25 16.2266 41.25 13.125C41.25 10.0234 38.7266 7.5 35.625 7.5C32.5234 7.5 30 10.0234 30 13.125C30 16.2266 32.5234 18.75 35.625 18.75ZM35.625 11.25C36.6589 11.25 37.5 12.0911 37.5 13.125C37.5 14.1589 36.6589 15 35.625 15C34.5911 15 33.75 14.1589 33.75 13.125C33.75 12.0911 34.5911 11.25 35.625 11.25Z" fill="white"/>
<path d="M39.375 30H25.625C24.5895 30 23.75 30.8395 23.75 31.875V43.125C23.75 44.1605 24.5895 45 25.625 45H39.375C40.4105 45 41.25 44.1605 41.25 43.125V31.875C41.25 30.8395 40.4105 30 39.375 30ZM37.5 41.25H27.5V33.75H37.5V41.25Z" fill="white"/>
<path d="M18.125 45H9.375C8.3395 45 7.5 45.8395 7.5 46.875C7.5 47.9105 8.3395 48.75 9.375 48.75H18.125C19.1605 48.75 20 47.9105 20 46.875C20 45.8395 19.1605 45 18.125 45Z" fill="white"/>
<path d="M18.125 37.5H9.375C8.3395 37.5 7.5 38.3395 7.5 39.375C7.5 40.4105 8.3395 41.25 9.375 41.25H18.125C19.1605 41.25 20 40.4105 20 39.375C20 38.3395 19.1605 37.5 18.125 37.5Z" fill="white"/>
</svg>
