<svg width="26" height="28" viewBox="0 0 26 28" fill="none" xmlns="http://www.w3.org/2000/svg">
<path fill-rule="evenodd" clip-rule="evenodd" d="M12.9315 3.23592C14.6534 3.16992 16.3777 3.21906 18.0933 3.38303C18.9255 3.37253 19.7522 3.52191 20.5305 3.82342C21.6042 4.33537 22.4672 5.21822 22.9676 6.31674C23.2623 7.11297 23.4083 7.95871 23.3981 8.81005C23.3981 10.1303 23.5419 10.5707 23.5419 14.0909C23.6064 15.8525 23.5583 17.6166 23.3981 19.3718C23.4083 20.2231 23.2623 21.0689 22.9676 21.8651C22.4672 22.9636 21.6042 23.8465 20.5305 24.3584C19.7522 24.6599 18.9255 24.8093 18.0933 24.7988C16.8029 24.7988 16.3724 24.9459 12.9315 24.9459C11.2096 25.0119 9.48526 24.9628 7.76961 24.7988C6.93745 24.8093 6.11077 24.6599 5.33248 24.3584C4.25871 23.8465 3.39576 22.9636 2.89534 21.8651C2.60032 21.0689 2.45399 20.2232 2.46396 19.3718C2.46396 18.0516 2.32016 17.6112 2.32016 14.0909C2.25564 12.3293 2.30368 10.5653 2.46396 8.81005C2.45369 7.95871 2.59971 7.11297 2.89442 6.31674C3.14471 5.7726 3.48421 5.27633 3.89822 4.84941C4.23436 4.33647 4.74546 3.97028 5.33155 3.82247C6.11013 3.52085 6.93714 3.37147 7.76961 3.38209C9.48528 3.21843 11.2096 3.1696 12.9315 3.23592ZM12.9315 0.88877C11.1616 0.824308 9.38962 0.873441 7.62582 1.03588C6.54826 1.03329 5.47929 1.23206 4.47155 1.62243C3.60137 1.91254 2.81374 2.41596 2.17729 3.08881C1.5196 3.73994 1.02753 4.54572 0.743953 5.43596C0.293801 6.4462 0.0967555 7.55526 0.170618 8.66295C0.0118401 10.4674 -0.0361856 12.2803 0.0268232 14.0909C-0.0361471 15.9012 0.0118787 17.7138 0.170618 19.5179C0.168082 20.6203 0.362382 21.7139 0.743953 22.7449C1.02753 23.6352 1.5196 24.4409 2.17729 25.0921C2.81374 25.7649 3.60137 26.2683 4.47155 26.5585C5.47929 26.9488 6.54826 27.1476 7.62582 27.145C9.3896 27.3078 11.1616 27.3572 12.9315 27.2931C14.701 27.3575 16.4727 27.3083 18.2362 27.1459C19.3138 27.1485 20.3827 26.9498 21.3905 26.5594C22.254 26.255 23.0385 25.7534 23.6843 25.0926C24.3302 24.4319 24.8205 23.6293 25.1181 22.7459C25.4996 21.7149 25.6939 20.6213 25.6914 19.5189C25.6914 18.0516 25.8361 17.6112 25.8361 14.0909C25.8991 12.2806 25.8511 10.468 25.6923 8.66389C25.6949 7.56149 25.5006 6.46788 25.119 5.43691C24.8354 4.54667 24.3433 3.74088 23.6856 3.08976C23.049 2.41643 22.2611 1.91268 21.3905 1.62243C20.3827 1.23206 19.3138 1.03329 18.2362 1.03588C16.4727 0.873481 14.701 0.824348 12.9315 0.88877ZM12.9315 7.34273C12.0613 7.32794 11.197 7.49238 10.3902 7.82627C9.58342 8.16016 8.85051 8.65667 8.2351 9.28627C7.61969 9.91587 7.13436 10.6657 6.80799 11.4911C6.48163 12.3165 6.32089 13.2006 6.33535 14.0909C6.33553 15.4253 6.72247 16.7297 7.44723 17.8391C8.17199 18.9486 9.20202 19.8132 10.4071 20.3238C11.6122 20.8343 12.9382 20.9679 14.2174 20.7075C15.4967 20.4471 16.6718 19.8045 17.5941 18.861C18.5164 17.9174 19.1445 16.7153 19.399 15.4065C19.6535 14.0978 19.5229 12.7412 19.0239 11.5083C18.5248 10.2755 17.6796 9.22171 16.5952 8.48024C15.5108 7.73877 14.2358 7.34292 12.9315 7.34273ZM12.9315 18.491C12.3637 18.5017 11.7997 18.3953 11.2731 18.178C10.7465 17.9607 10.2681 17.637 9.86653 17.2262C9.46497 16.8155 9.14847 16.3262 8.93594 15.7875C8.72342 15.2487 8.61923 14.6717 8.62961 14.0909C8.61911 13.51 8.7232 12.9329 8.93567 12.3941C9.14814 11.8553 9.46462 11.3658 9.8662 10.955C10.2678 10.5441 10.7462 10.2204 11.2729 10.003C11.7995 9.78563 12.3637 9.67913 12.9315 9.68988C13.4992 9.67926 14.0632 9.78585 14.5898 10.0033C15.1163 10.2207 15.5947 10.5445 15.9961 10.9553C16.3976 11.3661 16.714 11.8556 16.9264 12.3943C17.1388 12.9331 17.2429 13.5101 17.2324 14.0909C17.2428 14.6717 17.1386 15.2486 16.9262 15.7872C16.7137 16.3259 16.3973 16.8152 15.9958 17.2259C15.5943 17.6366 15.1161 17.9603 14.5896 18.1777C14.0631 18.3951 13.4991 18.5016 12.9315 18.491ZM19.8133 5.43596C19.5014 5.43596 19.1965 5.53059 18.9371 5.70789C18.6778 5.88518 18.4756 6.13717 18.3563 6.432C18.2369 6.72683 18.2057 7.05124 18.2665 7.36423C18.3274 7.67722 18.4776 7.96471 18.6981 8.19037C18.9187 8.41602 19.1997 8.56968 19.5056 8.63194C19.8116 8.6942 20.1287 8.66225 20.4169 8.54013C20.7051 8.418 20.9514 8.2112 21.1247 7.94586C21.298 7.68052 21.3905 7.36857 21.3905 7.04946C21.3869 6.62267 21.2195 6.21442 20.9245 5.91263C20.6296 5.61084 20.2305 5.43966 19.8133 5.43596Z" fill="#222325"/>
</svg>
