<svg width="31" height="26" viewBox="0 0 31 26" fill="none" xmlns="http://www.w3.org/2000/svg">
<path fill-rule="evenodd" clip-rule="evenodd" d="M9.81666 25.5931C21.5289 25.5931 27.9011 16.1074 27.9011 7.80637V6.95943C29.104 6.05828 30.1505 4.97141 31 3.74107C29.8452 4.23501 28.6291 4.57674 27.3833 4.75739C28.6642 3.96636 29.6354 2.77239 30.1389 1.36965C28.8947 2.05301 27.5623 2.56766 26.1778 2.8996C25.5956 2.25326 24.8796 1.73697 24.0777 1.38543C23.2759 1.03389 22.4068 0.855236 21.5289 0.861487C19.8468 0.886581 18.2408 1.55494 17.0513 2.7249C15.8617 3.89486 15.1822 5.47444 15.1567 7.12882C15.1175 7.58738 15.1761 8.04895 15.3289 8.48392C12.7944 8.36366 10.3153 7.71204 8.05776 6.57271C5.80018 5.43339 3.81625 3.83267 2.23889 1.87781C1.67219 2.8587 1.37539 3.96799 1.37778 5.09617C1.4007 6.11993 1.66081 7.12505 2.13832 8.035C2.61584 8.94495 3.29816 9.73575 4.13333 10.3472C3.09809 10.3267 2.08725 10.0342 1.20555 9.50024C1.20382 10.951 1.72017 12.3563 2.66447 13.4708C3.60877 14.5853 4.92104 15.3382 6.37222 15.5982C5.81143 15.7469 5.22963 15.8041 4.65 15.7676C4.24052 15.7947 3.82981 15.737 3.44444 15.5982C3.86561 16.8535 4.67068 17.9503 5.7496 18.7386C6.82851 19.5269 8.12863 19.9682 9.47222 20.0023C7.2107 21.7426 4.42697 22.6975 1.55556 22.7179C1.03109 22.7461 0.505492 22.6889 0 22.5485C2.85001 24.5839 6.29502 25.6539 9.81666 25.5975" fill="#222325"/>
</svg>
