<svg width="64" height="50" viewBox="0 0 64 50" fill="none" xmlns="http://www.w3.org/2000/svg">
<path d="M58.375 0.625H5.625C2.52725 0.625 0 3.1495 0 6.25V43.75C0 46.84 2.516 49.375 5.625 49.375H58.375C61.465 49.375 64 46.859 64 43.75V6.25C64 3.16 61.484 0.625 58.375 0.625ZM57.5983 4.375L32.1193 29.8541L6.41988 4.375H57.5983ZM3.75 42.9735V7.00863L21.8099 24.9136L3.75 42.9735ZM6.40163 45.625L24.4729 27.5537L30.805 33.8315C31.538 34.5583 32.7209 34.5559 33.4509 33.8257L39.625 27.6516L57.5984 45.625H6.40163ZM60.25 42.9734L42.2766 25L60.25 7.0265V42.9734Z" fill="#33AA09"/>
</svg>
