<svg width="64" height="64" viewBox="0 0 64 64" fill="none" xmlns="http://www.w3.org/2000/svg">
<g clip-path="url(#clip0)">
<path d="M61.5477 13.0682C59.0919 9.68909 54.7914 6.63909 49.4381 4.48034C44.1138 2.33334 37.9318 1.14609 32.0306 1.13759C26.129 1.12284 19.9394 2.29784 14.6074 4.42821C9.24488 6.57084 4.934 9.60759 2.46938 12.9787C0.102125 16.2166 -0.580125 19.7065 0.49625 23.0711C1.1945 25.2538 3.23138 26.7225 5.566 26.7258L13.5599 26.7333C13.5625 26.7333 13.5651 26.7333 13.5679 26.7333C15.1619 26.7332 16.6595 26.0355 17.6773 24.8181C18.6843 23.6137 19.1014 22.0397 18.8218 20.4995C18.8136 20.4543 18.8036 20.4093 18.7923 20.3647L18.3716 18.7295C20.7009 17.6181 25.9784 15.4708 32.006 15.505C38.0293 15.5358 43.3031 17.6818 45.6353 18.7937L45.2079 20.4197C45.1958 20.4657 45.1855 20.5121 45.1768 20.5587C44.8929 22.0981 45.3054 23.6732 46.3089 24.8805C47.3249 26.103 48.8236 26.8052 50.4218 26.8076L58.4157 26.8151C58.4183 26.8151 58.421 26.8151 58.4237 26.8151C60.7538 26.815 62.7913 25.3531 63.4949 23.175C64.5813 19.8111 63.908 16.3162 61.5477 13.0682ZM59.86 22.0007C59.6707 22.5867 59.0803 22.9955 58.4223 22.9955C58.4216 22.9955 58.4208 22.9955 58.42 22.9955L50.4261 22.988C49.9656 22.9873 49.5355 22.7872 49.246 22.4388C49.0886 22.2495 48.843 21.8556 48.9234 21.3078L49.7186 18.2825C49.9365 17.4533 49.5754 16.5808 48.8353 16.1481C48.5269 15.9678 41.1765 11.7321 32.0255 11.685C31.9746 11.6847 31.9253 11.6846 31.8745 11.6846C22.7824 11.6846 15.4844 15.9018 15.1765 16.0823C14.4411 16.5136 14.0806 17.3798 14.293 18.2056L15.0725 21.2358C15.1521 21.7847 14.905 22.1786 14.7469 22.3678C14.457 22.7146 14.0273 22.9133 13.5668 22.9133C13.566 22.9133 13.5653 22.9133 13.5645 22.9133L5.5705 22.9058C4.91263 22.9048 4.322 22.4941 4.13425 21.9068C3.43525 19.7217 3.9125 17.4761 5.55275 15.2326C9.90988 9.27309 21.0099 4.95671 31.9655 4.95671C31.985 4.95671 32.0059 4.95671 32.0254 4.95671C42.9919 4.97246 54.1085 9.32809 58.4582 15.3133C60.0943 17.5655 60.5662 19.8153 59.86 22.0007Z" fill="#33AA09"/>
<path d="M50.0744 34.976L44.113 28.7166C43.7524 28.3381 43.2528 28.124 42.7301 28.124H38.8776V25.5211C38.8776 24.4663 38.0226 23.6113 36.9679 23.6113C35.9133 23.6113 35.0581 24.4663 35.0581 25.5211V28.124H28.9429V25.5211C28.9429 24.4663 28.0879 23.6113 27.0331 23.6113C25.9784 23.6113 25.1234 24.4663 25.1234 25.5211V28.124H21.271C20.7484 28.124 20.2485 28.3382 19.8881 28.7166L13.9269 34.976C9.25288 39.8837 6.67876 46.319 6.67876 53.0962V60.9528C6.67876 62.0076 7.53376 62.8626 8.58851 62.8626H55.4125C56.4673 62.8626 57.3223 62.0076 57.3223 60.9528V53.0962C57.3225 46.3188 54.7484 39.8837 50.0744 34.976ZM10.4983 59.0431V53.0962C10.4983 47.3041 12.6981 41.8045 16.6929 37.61L22.0896 31.9432H41.9116L47.3084 37.61C51.3029 41.8042 53.5028 47.3041 53.5028 53.0962V59.0431H10.4983Z" fill="#33AA09"/>
<path d="M32.0006 35.8918C26.4894 35.8918 22.0058 40.3756 22.0058 45.8867C22.0058 51.398 26.4895 55.8817 32.0006 55.8817C37.5118 55.8817 41.9955 51.398 41.9955 45.8867C41.9955 40.3755 37.5119 35.8918 32.0006 35.8918ZM32.0006 52.0621C28.5954 52.0621 25.8253 49.2918 25.8253 45.8866C25.8253 42.4815 28.5955 39.7112 32.0006 39.7112C35.4058 39.7112 38.176 42.4815 38.176 45.8866C38.176 49.2918 35.4058 52.0621 32.0006 52.0621Z" fill="#33AA09"/>
</g>
<defs>
<clipPath id="clip0">
<rect width="64" height="64" fill="white"/>
</clipPath>
</defs>
</svg>
