<svg width="64" height="64" viewBox="0 0 64 64" fill="none" xmlns="http://www.w3.org/2000/svg">
<path d="M32 0C19.5935 0 9.5 10.0935 9.5 22.5C9.5 26.6917 10.6611 30.7825 12.8586 34.3315L30.7192 63.1136C31.0614 63.665 31.6641 64 32.3124 64C32.3174 64 32.3223 64 32.3273 64C32.9811 63.9949 33.5851 63.6495 33.921 63.0885L51.3264 34.0275C53.4026 30.5535 54.5 26.5674 54.5 22.5C54.5 10.0935 44.4065 0 32 0ZM48.1082 32.1022L32.284 58.5233L16.0459 32.3558C14.2168 29.4018 13.225 25.9937 13.225 22.5C13.225 12.1613 21.6613 3.725 32 3.725C42.3387 3.725 50.7625 12.1613 50.7625 22.5C50.7625 25.8901 49.8361 29.211 48.1082 32.1022Z" fill="#33AA09"/>
<path d="M32 11.25C25.7968 11.25 20.75 16.2968 20.75 22.5C20.75 28.6636 25.7146 33.75 32 33.75C38.3629 33.75 43.25 28.5959 43.25 22.5C43.25 16.2968 38.2033 11.25 32 11.25ZM32 30.025C27.8429 30.025 24.475 26.6459 24.475 22.5C24.475 18.3645 27.8645 14.975 32 14.975C36.1355 14.975 39.5125 18.3645 39.5125 22.5C39.5125 26.5854 36.223 30.025 32 30.025Z" fill="#33AA09"/>
</svg>
